HIERARCHY
ROOT Hips
{
	OFFSET 0.00000 0.00000 0.00000
	CHANNELS 6 Xposition Yposition Zposition Zrotation Yrotation Xrotation 
	JOINT LHipJoint
	{
		OFFSET 0 0 0
		CHANNELS 3 Zrotation Yrotation Xrotation
		JOINT LeftUpLeg
		{
			OFFSET 1.53794 -1.55850 0.93568
			CHANNELS 3 Zrotation Yrotation Xrotation
			JOINT LeftLeg
			{
				OFFSET 2.28545 -6.27922 0.00000
				CHANNELS 3 Zrotation Yrotation Xrotation
				JOINT LeftFoot
				{
					OFFSET 2.37329 -6.52057 0.00000
					CHANNELS 3 Zrotation Yrotation Xrotation
					JOINT LeftToeBase
					{
						OFFSET 0.14846 -0.40788 2.09160
						CHANNELS 3 Zrotation Yrotation Xrotation
						End Site
						{
							OFFSET 0.00000 -0.00000 1.07536
						}
					}
				}
			}
		}
	}
	JOINT RHipJoint
	{
		OFFSET 0 0 0
		CHANNELS 3 Zrotation Yrotation Xrotation
		JOINT RightUpLeg
		{
			OFFSET -1.78290 -1.55850 0.93568
			CHANNELS 3 Zrotation Yrotation Xrotation
			JOINT RightLeg
			{
				OFFSET -2.24144 -6.15831 0.00000
				CHANNELS 3 Zrotation Yrotation Xrotation
				JOINT RightFoot
				{
					OFFSET -2.35091 -6.45907 0.00000
					CHANNELS 3 Zrotation Yrotation Xrotation
					JOINT RightToeBase
					{
						OFFSET -0.14428 -0.39641 2.07944
						CHANNELS 3 Zrotation Yrotation Xrotation
						End Site
						{
							OFFSET -0.00000 -0.00000 1.06864
						}
					}
				}
			}
		}
	}
	JOINT LowerBack
	{
		OFFSET 0 0 0
		CHANNELS 3 Zrotation Yrotation Xrotation
		JOINT Spine
		{
			OFFSET -0.08841 2.11430 -0.15818
			CHANNELS 3 Zrotation Yrotation Xrotation
			JOINT Spine1
			{
				OFFSET -0.00033 2.12605 -0.08097
				CHANNELS 3 Zrotation Yrotation Xrotation
				JOINT Neck
				{
					OFFSET 0 0 0
					CHANNELS 3 Zrotation Yrotation Xrotation
					JOINT Neck1
					{
						OFFSET 0.04431 1.59447 0.43193
						CHANNELS 3 Zrotation Yrotation Xrotation
						JOINT Head
						{
							OFFSET 0.00455 1.62017 -0.58852
							CHANNELS 3 Zrotation Yrotation Xrotation
							End Site
							{
								OFFSET -0.00920 1.72955 -0.25850
							}
						}
					}
				}
				JOINT LeftShoulder
				{
					OFFSET 0 0 0
					CHANNELS 3 Zrotation Yrotation Xrotation
					JOINT LeftArm
					{
						OFFSET 2.86490 1.49927 -0.33774
						CHANNELS 3 Zrotation Yrotation Xrotation
						JOINT LeftForeArm
						{
							OFFSET 4.87408 -0.00000 0.00000
							CHANNELS 3 Zrotation Yrotation Xrotation
							JOINT LeftHand
							{
								OFFSET 2.76729 -0.00000 0.00000
								CHANNELS 3 Zrotation Yrotation Xrotation
								JOINT LeftFingerBase
								{
									OFFSET 0 0 0
									CHANNELS 3 Zrotation Yrotation Xrotation
									JOINT LeftHandIndex1
									{
										OFFSET 0.98922 -0.00000 0.00000
										CHANNELS 3 Zrotation Yrotation Xrotation
										End Site
										{
											OFFSET 0.79753 -0.00000 0.00000
										}
									}
								}
								JOINT LThumb
								{
									OFFSET 0 0 0
									CHANNELS 3 Zrotation Yrotation Xrotation
									End Site
									{
										OFFSET 0.80972 -0.00000 0.80972
									}
								}
							}
						}
					}
				}
				JOINT RightShoulder
				{
					OFFSET 0 0 0
					CHANNELS 3 Zrotation Yrotation Xrotation
					JOINT RightArm
					{
						OFFSET -2.94414 1.45463 -0.25291
						CHANNELS 3 Zrotation Yrotation Xrotation
						JOINT RightForeArm
						{
							OFFSET -4.71404 -0.00000 0.00000
							CHANNELS 3 Zrotation Yrotation Xrotation
							JOINT RightHand
							{
								OFFSET -2.83468 -0.00000 0.00000
								CHANNELS 3 Zrotation Yrotation Xrotation
								JOINT RightFingerBase
								{
									OFFSET 0 0 0
									CHANNELS 3 Zrotation Yrotation Xrotation
									JOINT RightHandIndex1
									{
										OFFSET -0.86820 -0.00000 0.00000
										CHANNELS 3 Zrotation Yrotation Xrotation
										End Site
										{
											OFFSET -0.69996 -0.00000 0.00000
										}
									}
								}
								JOINT RThumb
								{
									OFFSET 0 0 0
									CHANNELS 3 Zrotation Yrotation Xrotation
									End Site
									{
										OFFSET -0.71065 -0.00000 0.71065
									}
								}
							}
						}
					}
				}
			}
		}
	}
}
MOTION
Frames: 9
Frame Time: .0083333
0.0524 15.8584 7.8994 178.6540 1.8957 -170.8680 0.0000 0.0000 0.0000 -25.4616 -12.6316 -10.5041 2.3187 9.5006 27.3741 -0.8116 17.6814 -15.3175 0.0135 -0.7506 -2.0629 0.0000 0.0000 0.0000 21.0826 12.2162 -13.3291 -2.7996 -10.3634 30.1616 -0.2083 -12.4071 -20.1115 -0.4921 4.4976 -12.4811 -4.8161 0.1588 -6.7227 0.2066 0.6101 0.6496 2.9857 0.1893 4.4001 3.8188 -0.0383 -35.8949 0.4493 -0.9530 38.8477 -0.4395 0.9499 22.0457 0.0000 0.0000 0.0000 -90.0513 -3.2958 13.3516 10.5056 -17.5266 -1.6239 -0.0000 -0.0000 52.1893 -3.4746 5.5636 -0.3373 -7.1250 0.0000 -0.0000 -24.5225 34.5829 6.8043 0.0000 0.0000 0.0000 90.4785 -5.1282 2.8993 -13.9281 22.6318 -2.8004 0.0000 0.0000 34.5888 -0.9860 -7.0340 0.1208 7.1250 -0.0000 -0.0000 21.4448 -36.2217 4.9122
0.0486 15.8506 7.8811 178.6530 1.8212 -170.8490 0.0000 0.0000 0.0000 -25.4789 -12.6393 -10.4886 2.3339 9.5295 27.4661 -0.7911 17.6030 -15.4937 0.0135 -0.7492 -2.0590 0.0000 0.0000 0.0000 21.0516 12.2481 -13.3713 -2.8419 -10.4346 30.3958 -0.2171 -12.4548 -20.2643 -0.5172 4.6092 -12.7972 -4.8377 0.1811 -6.6922 0.2097 0.6393 0.6185 3.0035 0.2053 4.3477 3.8046 -0.0748 -35.8951 0.5040 -1.0010 38.9515 -0.4167 0.9511 22.1196 0.0000 -0.0000 0.0000 -90.0677 -3.2531 13.5070 10.5188 -17.5469 -1.6279 -0.0000 -0.0000 51.9703 -3.4577 5.6071 -0.3382 -7.1250 0.0000 -0.0000 -24.5218 34.6235 6.7774 0.0000 -0.0000 0.0000 90.4533 -5.2164 2.8034 -13.9531 22.6676 -2.8100 0.0000 0.0000 34.6260 -1.0028 -7.0030 0.1223 7.1250 -0.0000 -0.0000 21.4231 -36.1938 4.9222
0.0448 15.8428 7.8629 178.6360 1.7540 -170.8300 0.0000 0.0000 0.0000 -25.5147 -12.6278 -10.4737 2.3470 9.5542 27.5449 -0.7692 17.5135 -15.6623 0.0136 -0.7541 -2.0726 0.0000 0.0000 0.0000 20.9980 12.2955 -13.4527 -2.8967 -10.5260 30.6974 -0.2229 -12.5207 -20.4077 -0.5478 4.7415 -13.1727 -4.8817 0.2033 -6.6639 0.2097 0.6707 0.5984 3.0310 0.2214 4.3076 3.7776 -0.1123 -35.9221 0.5744 -1.0536 39.0567 -0.3844 0.9507 22.2026 0.0000 -0.0000 0.0000 -90.0820 -3.2311 13.6657 10.5341 -17.5706 -1.6325 -0.0000 -0.0000 51.7595 -3.4578 5.6384 -0.3401 -7.1250 0.0000 -0.0000 -24.5308 34.6521 6.7615 0.0000 -0.0000 0.0000 90.4242 -5.2720 2.7022 -13.9731 22.6962 -2.8177 0.0000 0.0000 34.6448 -1.0343 -6.9766 0.1256 7.1250 -0.0000 -0.0000 21.3909 -36.1713 4.9265
0.0410 15.8350 7.8447 178.6020 1.6987 -170.8130 0.0000 0.0000 0.0000 -25.5721 -12.5955 -10.4551 2.3573 9.5736 27.6068 -0.7467 17.4177 -15.8238 0.0140 -0.7631 -2.0972 0.0000 0.0000 0.0000 20.9212 12.3562 -13.5817 -2.9670 -10.6415 31.0801 -0.2247 -12.6098 -20.5360 -0.5833 4.8902 -13.5956 -4.9508 0.2212 -6.6421 0.2093 0.6991 0.5914 3.0720 0.2347 4.2849 2.5599 1.6079 -35.9577 1.6070 -1.9724 39.0565 -0.3762 -0.6252 22.2670 -0.0000 -0.0000 0.0000 -90.0981 -3.2286 13.8102 10.5473 -17.5910 -1.6365 -0.0000 -0.0000 51.5592 -3.4643 5.6574 -0.3419 -7.1250 0.0000 -0.0000 -24.5411 34.6690 6.7538 -0.0000 -0.0000 0.0000 90.3819 -5.3019 2.6301 -13.9939 22.7260 -2.8257 0.0000 0.0000 34.6435 -1.0748 -6.9596 0.1302 7.1250 -0.0000 -0.0000 21.3543 -36.1582 4.9243
0.0370 15.8272 7.8264 178.5530 1.6558 -170.7980 0.0000 0.0000 0.0000 -25.6490 -12.5488 -10.4283 2.3644 9.5872 27.6499 -0.7242 17.3233 -15.9850 0.0143 -0.7723 -2.1225 0.0000 0.0000 0.0000 20.8235 12.4290 -13.7636 -3.0558 -10.7848 31.5576 -0.2253 -12.7080 -20.6619 -0.6212 5.0437 -14.0333 -5.0378 0.2386 -6.6260 0.2085 0.7286 0.5949 3.1229 0.2476 4.2761 2.5888 1.6246 -35.9913 1.6346 -1.9922 39.1053 -0.3727 -0.6239 22.3127 0.0000 0.0000 0.0000 -90.1149 -3.2349 13.9452 10.5625 -17.6146 -1.6411 -0.0000 -0.0000 51.4164 -3.4929 5.6590 -0.3449 -7.1250 0.0000 -0.0000 -24.5636 34.6687 6.7612 0.0000 0.0000 0.0000 90.3304 -5.3082 2.5613 -14.0129 22.7531 -2.8331 0.0000 0.0000 34.6440 -1.1112 -6.9376 0.1342 7.1250 -0.0000 -0.0000 21.3193 -36.1400 4.9254
0.0330 15.8193 7.8079 178.4900 1.6218 -170.7880 0.0000 0.0000 0.0000 -25.7476 -12.4892 -10.3878 2.3688 9.5954 27.6761 -0.7011 17.2287 -16.1538 0.0143 -0.7714 -2.1199 0.0000 0.0000 0.0000 20.7046 12.4999 -14.0059 -3.1660 -10.9591 32.1420 -0.2258 -12.8109 -20.7930 -0.6626 5.2059 -14.4967 -5.1384 0.2534 -6.6029 0.2020 0.7558 0.6027 3.1752 0.2590 4.2677 2.6874 1.6585 -36.0156 1.6009 -1.9868 39.1121 -0.4058 -0.6097 22.3233 -0.0000 -0.0000 0.0000 -90.1242 -3.2336 14.0772 10.5836 -17.6471 -1.6475 -0.0000 -0.0000 51.2954 -3.5403 5.6492 -0.3489 -7.1250 0.0000 -0.0000 -24.5971 34.6567 6.7799 -0.0000 -0.0000 0.0000 90.2792 -5.2976 2.4891 -14.0282 22.7749 -2.8390 0.0000 0.0000 34.6608 -1.1462 -6.9160 0.1380 7.1250 -0.0000 -0.0000 21.2857 -36.1221 4.9266
0.0289 15.8111 7.7894 178.4130 1.6014 -170.7780 0.0000 0.0000 0.0000 -25.8641 -12.4186 -10.3393 2.3706 9.5988 27.6869 -0.6782 17.1400 -16.3300 0.0139 -0.7622 -2.0948 0.0000 0.0000 0.0000 20.5652 12.5730 -14.3201 -3.3005 -11.1664 32.8430 -0.2274 -12.9135 -20.9351 -0.7084 5.3792 -14.9932 -5.2511 0.2619 -6.5691 0.1943 0.7751 0.6038 3.2320 0.2667 4.2471 2.7896 1.6989 -36.0553 1.5557 -1.9655 39.1158 -0.4410 -0.5902 22.3355 0.0000 -0.0000 0.0000 -90.1330 -3.2081 14.2039 10.6080 -17.6848 -1.6549 -0.0000 -0.0000 51.1706 -3.6035 5.6446 -0.3549 -7.1250 0.0000 -0.0000 -24.6442 34.6485 6.8007 0.0000 -0.0000 0.0000 90.2186 -5.3000 2.4543 -14.0501 22.8063 -2.8475 0.0000 0.0000 34.6672 -1.1613 -6.9141 0.1398 7.1250 -0.0000 -0.0000 21.2732 -36.1213 4.9238
0.0248 15.8024 7.7709 178.3260 1.5888 -170.7730 0.0000 0.0000 0.0000 -25.9970 -12.3438 -10.2773 2.3702 9.5980 27.6846 -0.6558 17.0583 -16.5098 0.0132 -0.7413 -2.0372 0.0000 0.0000 0.0000 20.4071 12.6247 -14.7144 -3.4620 -11.4079 33.6681 -0.2294 -13.0133 -21.0781 -0.7649 5.5849 -15.5846 -5.3690 0.2711 -6.5220 0.1782 0.7951 0.6067 3.2830 0.2750 4.2206 2.8846 1.7349 -36.1417 1.5124 -1.9471 39.1252 -0.4744 -0.5711 22.3650 -0.0000 -0.0000 0.0000 -90.1284 -3.1746 14.3391 10.6329 -17.7233 -1.6624 -0.0000 -0.0000 51.0618 -3.6700 5.6374 -0.3610 -7.1250 0.0000 -0.0000 -24.6931 34.6377 6.8237 -0.0000 -0.0000 0.0000 90.1700 -5.2974 2.4121 -14.0751 22.8419 -2.8572 0.0000 0.0000 34.6594 -1.1551 -6.9247 0.1393 7.1250 -0.0000 -0.0000 21.2809 -36.1308 4.9206
0.0209 15.7937 7.7522 178.2270 1.5860 -170.7740 0.0000 0.0000 0.0000 -26.1430 -12.2560 -10.2021 2.3670 9.5919 27.6651 -0.6334 16.9770 -16.6874 0.0122 -0.7141 -1.9626 0.0000 0.0000 0.0000 20.2315 12.6627 -15.1920 -3.6532 -11.6840 34.6232 -0.2292 -13.1297 -21.2193 -0.8384 5.8409 -16.3235 -5.4946 0.2778 -6.4576 0.1550 0.8116 0.6057 3.3303 0.2821 4.1806 2.9427 1.7609 -36.2303 1.5080 -1.9468 39.1534 -0.4863 -0.5596 22.4102 0.0000 -0.0000 0.0000 -90.1104 -3.1168 14.4837 10.6593 -17.7641 -1.6705 -0.0000 -0.0000 50.9523 -3.7155 5.6335 -0.3652 -7.1250 0.0000 -0.0000 -24.7267 34.6312 6.8389 0.0000 -0.0000 0.0000 90.1299 -5.3105 2.3887 -14.1067 22.8871 -2.8695 0.0000 0.0000 34.6203 -1.1462 -6.9206 0.1381 7.1250 -0.0000 -0.0000 21.2869 -36.1263 4.9246
